# xmcd
#
# Track frame offsets:
#	150
#	10028
#	20117
#	30059
#	43280
#	55347
#	66879
#	79864
#	92091
#	103001
#	113142
#	123863
#	134991
#	149463
#	161967
#	172489
#	185254
#	198594
#	211662
#	225105
#	236701
#	252047
#	264294
#	275441
#	285644
#	297861
#	310797
#	321030
#	334291
#	345656
#
# Disc length: 4712 seconds
#
# Revision: 1
# Processed by: cddbd v1.5.2PL0 Copyright (c) Steve Scherf et al.
# Submitted via: audiograbber 1.83.01
#
DISCID=bd12661e
DTITLE=Various Artist - Soul City New York
DYEAR=2013
DGENRE=Soul
TTITLE0=Ike and Tina Turner - 1961 - If
TTITLE1=Ike and Tina Turner - 1961 - You Can't Blame Me
TTITLE2=Ike and Tina Turner - 1962 - Mind In A Whirl
TTITLE3=Ike and Tina Turner - 1961 - Sleepless
TTITLE4=Ike and Tina Turner - 1962 - Tra La La La La
TTITLE5=Baby Washington - 1962 - Careless Hands
TTITLE6=Baby Washington - 1962 - I'v Got A Feeling
TTITLE7=Linda and The Del Rios - 1962 - Come On, Let Me Try
TTITLE8=Elmore Morris - 1962 - It Seemed Like Heaven To Me
TTITLE9=Titus Turner - 1962 - People Sure Act Funny
TTITLE10=Shirelles - 1962 - Mama, Here Comes The Bride
TTITLE11=Dinah Washington - 1962 - You're A Sweetheart
TTITLE12=Dinah Washington - 1962 - It's Mean Old Man's World
TTITLE13=Dinah Washington - 1962 - You're Nobody Till Somebody Loves You
TTITLE14=Gladys Knight and The Pips - 1962 - Operator
TTITLE15=Gladys Knight and The Pips - 1962 - I'll Trust In You
TTITLE16=Don Gardner and Dee Dee Ford - 1962 - I Need Your Loving
TTITLE17=Don Gardner and Dee Dee Ford - 1962 - Tell Me
TTITLE18=Don Gardner and Dee Dee Ford - 1962 - Don't You Worry
TTITLE19=Don Gardner and Dee Dee Ford - 1962 - Honey Sweet
TTITLE20=Dionne Warwick - 1962 - Don't Make Me Over
TTITLE21=Dionne Warwick - 1962 - I Smiled Yesterday
TTITLE22=Tommy Hunt - 1962 - Didn't I Tell You
TTITLE23=Tommy Hunt - 1962 - Poor Millionaire
TTITLE24=Tommy Hunt - 1962 - And I Never Knew
TTITLE25=Tommy Hunt - 1962 - I Just Don't Know What To Do With Myself
TTITLE26=Big Dee Irwin - 1962 - Everybody's Got A Dance But Me
TTITLE27=Big Dee Irwin - 1962 - And Heaven Was Here
TTITLE28=Buster Brown - 1961 - Sugar Babe
TTITLE29=Buster Brown - 1961 - I'm Going But I'll Be Back
EXTD=
EXTT0=
EXTT1=
EXTT2=
EXTT3=
EXTT4=
EXTT5=
EXTT6=
EXTT7=
EXTT8=
EXTT9=
EXTT10=
EXTT11=
EXTT12=
EXTT13=
EXTT14=
EXTT15=
EXTT16=
EXTT17=
EXTT18=
EXTT19=
EXTT20=
EXTT21=
EXTT22=
EXTT23=
EXTT24=
EXTT25=
EXTT26=
EXTT27=
EXTT28=
EXTT29=
PLAYORDER=
